HIERARCHY
ROOT Hips
{
 OFFSET 0.000000 0.000000 0.000000
 CHANNELS 6 Xposition Yposition Zposition Zrotation Yrotation Xrotation
 JOINT LeftUpLeg
 {
  OFFSET -10.548519 0.103460 -1.857825
  CHANNELS 3 Zrotation Yrotation Xrotation
  JOINT LeftLeg
  {
   OFFSET 0.000016 -43.500008 0.000019
   CHANNELS 3 Zrotation Yrotation Xrotation
   JOINT LeftFoot
   {
    OFFSET 0.000011 -42.372192 -0.000004
    CHANNELS 3 Zrotation Yrotation Xrotation
    JOINT LeftToe
    {
     OFFSET -0.000016 0.000001 -17.300001
     CHANNELS 3 Zrotation Yrotation Xrotation
     End Site
     {
      OFFSET 0.000000 0.000000 0.000000
     }
    }
   }
  }
 }
 JOINT RightUpLeg
 {
  OFFSET 10.548484 0.103460 -1.857824
  CHANNELS 3 Zrotation Yrotation Xrotation
  JOINT RightLeg
  {
   OFFSET 0.000031 -43.500046 0.000008
   CHANNELS 3 Zrotation Yrotation Xrotation
   JOINT RightFoot
   {
    OFFSET 0.000010 -42.372261 0.000000
    CHANNELS 3 Zrotation Yrotation Xrotation
    JOINT RightToe
    {
     OFFSET 0.000010 -0.000007 -17.299986
     CHANNELS 3 Zrotation Yrotation Xrotation
     End Site
     {
      OFFSET 0.000000 0.000000 0.000000
     }
    }
   }
  }
 }
 JOINT Spine
 {
  OFFSET 0.000000 6.901969 2.603749
  CHANNELS 3 Zrotation Yrotation Xrotation
  JOINT Spine1
  {
   OFFSET 0.000003 12.588099 -0.000014
   CHANNELS 3 Zrotation Yrotation Xrotation
   JOINT Spine2
   {
    OFFSET -0.000011 12.343207 -0.000019
    CHANNELS 3 Zrotation Yrotation Xrotation
    JOINT Neck
    {
     OFFSET 0.000002 25.832890 0.000025
     CHANNELS 3 Zrotation Yrotation Xrotation
     JOINT Head
     {
      OFFSET 0.000004 11.766609 -0.000013
      CHANNELS 3 Zrotation Yrotation Xrotation
      End Site
      {
       OFFSET 0.000000 0.000000 0.000000
      }
     }
    }
    JOINT LeftShoulder
    {
     OFFSET -6.000105 19.745899 1.480392
     CHANNELS 3 Zrotation Yrotation Xrotation
     JOINT LeftArm
     {
      OFFSET -11.284097 -0.000023 -0.000017
      CHANNELS 3 Zrotation Yrotation Xrotation
      JOINT LeftForeArm
      {
       OFFSET -33.000065 0.000044 -0.000020
       CHANNELS 3 Zrotation Yrotation Xrotation
       JOINT LeftHand
       {
        OFFSET -25.200005 0.000007 0.000023
        CHANNELS 3 Zrotation Yrotation Xrotation
        End Site
        {
         OFFSET 0.000000 0.000000 0.000000
        }
       }
      }
     }
    }
    JOINT RightShoulder
    {
     OFFSET 6.000090 19.746096 1.480391
     CHANNELS 3 Zrotation Yrotation Xrotation
     JOINT RightArm
     {
      OFFSET 11.284126 0.000012 -0.000026
      CHANNELS 3 Zrotation Yrotation Xrotation
      JOINT RightForeArm
      {
       OFFSET 33.000092 -0.000014 0.000010
       CHANNELS 3 Zrotation Yrotation Xrotation
       JOINT RightHand
       {
        OFFSET 25.199760 -0.000418 0.000151
        CHANNELS 3 Zrotation Yrotation Xrotation
        End Site
        {
         OFFSET 0.000000 0.000000 0.000000
        }
       }
      }
     }
    }
   }
  }
 }
}
MOTION
Frames: 17
Frame Time: 0.016667
0.000000 87.002298 0.000000 0.149042 -0.009348 3.589081 -10.192435 16.948079 13.849403 0.885828 -0.060425 -27.992125 7.638009 -1.016844 -8.987533 0.001132 0.002880 21.454553 9.740429 -3.490434 6.328675 2.866648 -11.530375 -32.613987 -13.299739 -5.754844 1.097739 -0.001122 -0.002903 21.454558 -0.498740 0.012503 -9.396135 -0.887765 -0.012265 -9.137397 -0.887818 -0.036626 -8.788046 -1.408925 16.907302 5.897711 15.020138 16.993512 21.954439 18.290827 0.224827 1.363091 49.956404 -3.974170 -35.793257 -38.178135 -78.446149 35.394409 -8.511236 6.588324 -17.657004 -15.970482 7.878277 -0.507201 -42.499056 10.701644 21.926934 157.943097 86.246848 155.339233 10.263147 2.989759 -34.671789
0.000000 85.426468 0.000000 -0.697719 0.335488 7.078134 -7.890255 19.010804 14.376944 -1.099068 -2.297196 -35.054109 7.665970 -1.743759 -6.092646 0.001130 0.002876 21.454553 11.984023 -5.544495 6.772846 3.526904 -9.473039 -40.975216 -14.682154 -4.434606 1.944145 -0.001122 -0.002904 21.454557 -0.176515 0.094247 -9.978935 -0.343192 0.084927 -9.883399 -0.294643 0.066946 -9.419758 -2.071672 16.643317 3.611254 15.137902 16.532454 22.912070 16.387141 -1.117254 1.061974 53.160971 -4.917592 -32.414843 -37.429595 -76.102364 34.251911 -6.446316 7.513536 -24.204227 -14.244999 8.743771 -0.586569 -49.200098 11.526824 23.892831 70.292074 87.298886 67.711789 11.187008 5.196617 -35.460800
-1.073438 83.892527 -1.070626 -1.034660 0.965882 10.937690 -7.523814 18.294261 13.062162 -2.396865 -3.485567 -40.482394 7.889110 -1.934707 -2.699949 0.001131 0.002879 21.454551 14.495626 -7.198650 6.188675 3.870454 -7.386276 -49.429683 -15.867789 -2.807974 1.710367 -0.001121 -0.002900 21.454557 -0.045756 0.155158 -10.408248 0.028978 0.267723 -10.862129 -0.061755 0.166808 -10.683836 -2.755594 15.745345 1.445258 14.617784 15.530381 24.709661 15.819081 -1.765643 0.916507 55.028442 -6.491118 -27.701345 -39.635860 -77.516231 36.453130 -6.608648 7.004160 -29.723579 -14.931051 9.005989 -0.711395 -53.293962 9.656307 25.530346 58.107655 86.418102 55.550189 10.816577 5.059563 -38.219440
-1.870285 81.626365 -2.352459 -1.687147 1.750356 14.479041 -7.686145 15.680718 11.858957 -3.170687 -3.216380 -45.705695 8.472595 -1.690723 0.729758 0.001132 0.002878 21.454551 16.263221 -8.024295 6.511753 4.247198 -5.261949 -57.057674 -16.562056 -1.814491 1.432578 -0.001120 -0.002896 21.454554 0.101731 0.064397 -10.865333 0.391375 0.137928 -11.519181 0.269461 0.271862 -11.254632 -3.965889 15.273838 -0.357679 14.721702 15.072081 25.048468 16.660571 -1.163568 1.059270 55.428350 -7.945178 -24.006663 -43.303611 -80.564420 40.331584 -8.140962 5.808817 -30.302095 -15.979008 9.409172 -0.876102 -55.667386 6.525248 24.078054 52.785803 86.234144 50.172750 11.614309 5.603022 -37.556599
-2.217621 80.191633 -3.579642 -1.621746 2.559359 17.250700 -8.032941 15.270720 10.653788 -3.224845 -3.981090 -50.815877 9.267765 -1.989751 4.100449 0.001130 0.002877 21.454549 16.849822 -7.450245 7.403000 4.173454 -3.531429 -64.712910 -17.055507 -1.193565 -0.570672 -0.001121 -0.002899 21.454560 0.274208 0.103030 -11.127040 0.562088 0.109197 -12.150243 0.551195 0.201886 -12.138698 -4.465318 15.617146 -0.826774 14.197533 15.275765 25.382278 17.434306 -0.450346 1.180927 55.501057 -10.686585 -23.029952 -45.617886 -81.965731 42.723495 -10.041554 3.831195 -28.700452 -16.632867 9.738656 -1.094480 -58.465682 3.378973 22.779615 58.092628 86.146257 55.457172 9.257543 4.269766 -38.346635
-2.132920 78.795724 -4.774223 -1.274601 3.728028 18.895196 -9.431975 15.192893 10.615798 -2.371381 -4.676605 -54.112371 9.848765 -2.689455 5.952427 0.001130 0.002878 21.454551 16.924545 -7.185098 9.177946 4.048219 -1.964017 -72.197208 -17.429849 -0.770008 -3.726750 -0.001121 -0.002900 21.454558 0.405931 -0.019333 -11.247203 0.749147 -0.043500 -12.581750 0.828646 -0.087439 -12.218342 -4.515318 15.893518 -0.760528 14.212439 15.603980 26.282012 18.743839 0.363753 1.358638 53.948150 -13.820846 -21.881880 -49.042807 -83.122264 46.154095 -10.730727 2.756320 -28.072551 -17.047963 9.730064 -1.129222 -62.644156 0.801193 22.717359 56.764857 86.006296 54.131700 9.403325 7.096741 -40.884633
-1.568096 78.367904 -5.530885 -0.543021 5.781022 19.641405 -10.667046 14.748658 10.606495 -1.432944 -5.368485 -54.885742 9.636483 -3.957737 6.570985 0.001131 0.002877 21.454550 16.842554 -7.401321 11.552003 3.652495 -1.609329 -77.239005 -18.273201 -1.394314 -9.107895 -0.001120 -0.002900 21.454560 0.573267 -0.207345 -11.321219 1.167748 -0.714404 -12.848498 1.207232 -0.727166 -12.411400 -4.046612 16.543363 0.012240 13.423022 15.936162 26.576215 18.923188 0.900904 1.482774 53.090764 -15.598759 -21.360686 -58.205057 -84.176428 55.224392 -9.224205 2.227369 -27.439271 -17.571701 9.853983 -1.178664 -66.242991 -0.921867 23.580532 58.257606 86.395778 55.462779 12.398541 7.838134 -35.439236
-0.597456 79.890707 -5.886326 0.745291 8.084939 18.624140 -12.039309 13.959094 11.426048 -0.150604 -6.075621 -52.051421 9.523263 -4.897460 4.374334 0.001131 0.002876 21.454551 15.199659 -8.801478 14.359266 3.600388 -1.443079 -79.519289 -15.167645 -1.983910 -12.769780 -0.001119 -0.002901 21.454555 0.753582 -0.563970 -11.120431 1.553927 -1.214783 -12.841974 1.492678 -1.252872 -12.229051 -4.822940 16.182417 1.146996 13.180337 15.742229 25.889284 18.779080 0.331951 1.347530 51.754422 -16.244479 -20.184384 -58.060287 -84.243684 55.119883 -8.234081 3.524901 -30.591099 -18.020964 9.553147 -1.119124 -67.174774 -2.409922 21.889864 59.953992 86.550627 57.240286 17.483983 8.040984 -31.503177
0.754673 81.224022 -5.846247 2.070684 10.820521 16.589448 -13.263784 12.219927 11.578352 0.583474 -6.146382 -46.571812 10.069168 -5.164430 1.253829 0.001130 0.002877 21.454551 13.273804 -10.849444 15.684705 3.874024 -3.266265 -76.452973 -15.714398 -2.245973 -10.395052 -0.001121 -0.002901 21.454555 0.775252 -0.753272 -10.989975 1.521905 -1.568105 -11.977706 1.580481 -1.587803 -11.649815 -5.545780 15.857097 3.107533 12.238714 15.642315 24.311794 17.991560 -0.682679 1.106541 51.310913 -17.170804 -19.124957 -51.810062 -83.758661 48.876198 -7.255204 3.650294 -29.745556 -16.806436 8.772984 -0.913203 -66.552613 -3.006519 20.102607 49.714273 85.743370 47.119932 19.492345 10.305359 -37.866821
2.445929 83.213652 -5.541618 3.576094 13.351180 14.439361 -15.201729 10.590813 11.446599 1.662792 -5.352426 -39.048742 10.895783 -5.222097 -3.181867 0.001129 0.002873 21.454551 11.947523 -11.476240 15.590265 4.385288 -5.772116 -69.009947 -15.903266 -3.051693 -7.693359 -0.001121 -0.002899 21.454560 0.722174 -0.958561 -10.587013 1.420034 -1.910248 -11.149483 1.417210 -1.951935 -10.821557 -5.731168 15.194603 5.074252 11.549434 15.132038 23.604162 17.463522 -1.263817 0.979386 50.839641 -17.182390 -17.692572 -60.457473 -84.485849 57.686555 -5.946870 4.703851 -28.894998 -16.062987 8.425052 -0.677172 -65.281970 -4.141154 19.650343 53.991797 85.682757 51.412989 17.842956 10.976159 -44.050488
4.110905 84.327255 -5.257279 4.541079 16.066125 12.245292 -16.073485 9.777552 11.802959 2.511314 -4.552163 -32.778667 13.503402 -5.123628 -5.968931 0.001132 0.002885 21.454551 11.696343 -11.412070 15.314191 4.099097 -8.222166 -60.438073 -15.849855 -3.876339 -4.427898 -0.001121 -0.002898 21.454557 0.698037 -1.079822 -9.989842 1.394696 -2.126960 -10.239902 1.421444 -2.148808 -10.096851 -5.654220 14.357414 6.750874 9.997145 14.613948 22.272280 16.774615 -1.638294 0.912153 49.999883 -16.725989 -17.409940 -55.882259 -84.593906 53.137057 -4.918383 4.844853 -29.495751 -15.255938 8.150882 -0.578054 -63.308279 -5.212281 21.217030 56.622604 86.205805 53.946300 16.405688 10.059523 -45.560998
5.593162 84.989486 -4.870263 4.955029 18.284578 10.082351 -16.895742 10.615460 12.958714 3.491849 -4.422064 -29.925649 15.754871 -5.484752 -6.934476 0.001131 0.002877 21.454550 12.373518 -9.470076 13.698039 3.279001 -11.384440 -50.119780 -16.295569 -5.154268 -2.222797 -0.001120 -0.002896 21.454558 0.618942 -1.055256 -9.783935 1.106774 -2.048762 -9.607087 1.164971 -2.049413 -9.315986 -5.015603 13.695481 8.292148 8.327712 13.858069 21.057855 16.217656 -1.645050 0.959129 48.702180 -16.712250 -17.018124 -59.267208 -86.064358 56.570442 -4.291022 5.519400 -29.062769 -13.390576 7.170824 -0.161043 -60.772274 -6.578939 23.163950 78.970106 87.493408 76.239097 17.719035 9.928185 -44.003008
6.882191 84.734073 -4.485000 4.401639 19.726934 8.913673 -16.244925 14.015933 15.700626 3.502688 -6.117713 -31.438387 17.716169 -6.768598 -7.741251 0.001131 0.002877 21.454551 13.400303 -7.809502 11.261992 2.813199 -13.187199 -40.401145 -15.761638 -6.177074 0.389814 -0.001122 -0.002902 21.454560 0.539015 -0.804567 -9.862449 1.094907 -1.679619 -9.556290 0.969287 -1.634523 -9.293630 -4.697371 12.198368 9.317116 6.917531 12.328502 20.749331 15.325523 -2.200271 0.872400 47.434976 -17.027861 -17.129486 -99.857991 -87.392502 97.317684 -3.349037 5.225095 -28.876777 -11.670917 6.600604 0.126042 -56.492822 -7.092286 25.665749 130.961331 87.512687 128.262558 19.032745 7.501687 -36.628498
7.841290 82.893273 -4.197297 3.953979 19.553121 8.870275 -15.886573 16.442804 17.030154 3.907796 -7.286088 -34.016893 18.299185 -7.823687 -7.100390 0.001129 0.002870 21.454552 14.344058 -5.686047 9.069051 2.010987 -14.249058 -33.059863 -15.386726 -6.505989 2.779029 -0.001121 -0.002900 21.454560 0.497835 -0.365093 -9.957991 0.940844 -0.872874 -9.989432 0.906193 -0.829843 -9.567547 -4.473364 11.174472 9.772777 6.442828 11.537370 20.661941 14.310881 -2.680587 0.804227 46.418835 -16.806628 -16.576508 -116.025866 -87.963541 113.450696 -1.661288 5.841592 -23.759924 -9.873431 6.679378 0.215140 -50.481347 -5.559415 28.057600 136.181166 87.629835 133.637296 18.446991 4.898928 -32.728194
8.566485 81.581890 -3.896616 3.566084 17.654203 9.903945 -16.254346 18.539099 17.597474 4.373846 -7.518749 -37.018753 17.482018 -8.321956 -5.383966 0.001130 0.002876 21.454551 14.622390 -5.321637 9.671291 2.410654 -14.460263 -31.687262 -16.259697 -6.985684 2.642719 -0.001120 -0.002900 21.454560 0.250304 0.198426 -10.241271 0.566249 0.263589 -10.292007 0.509662 0.314828 -10.039633 -5.126313 10.794772 9.457327 7.654438 11.494351 20.915084 15.056569 -2.851506 0.731495 43.139097 -16.981653 -14.778605 -153.469544 -86.702602 150.586453 -0.180945 6.050829 -21.466509 -8.940135 7.600615 0.157792 -43.569098 -3.277311 29.685167 149.396176 86.833282 147.025921 18.537455 4.813045 -33.095685
9.081609 80.619183 -3.398422 3.232399 15.124574 10.938673 -17.474088 19.942895 17.285480 4.345806 -7.411768 -39.642736 16.924478 -8.475545 -3.780416 0.001133 0.002887 21.454551 14.062624 -6.232914 12.115400 3.364311 -12.359069 -35.643556 -16.366401 -5.952515 1.262885 -0.001121 -0.002900 21.454560 0.029488 0.445631 -10.597136 0.104799 0.854683 -11.086940 0.084769 0.845517 -10.775580 -5.921163 12.099013 10.088703 9.629123 12.912993 20.939898 16.526745 -2.641512 0.730115 40.181683 -14.406888 -12.845191 -157.755216 -87.223617 154.924173 0.088242 5.398619 -19.003607 -9.244056 8.670494 -0.101648 -35.976148 1.779664 29.976426 147.268081 87.178227 144.913462 18.043418 4.940721 -33.691208
9.744702 79.076713 -2.980382 3.042063 13.250690 12.839952 -18.503110 19.927284 16.556310 3.686463 -6.859458 -42.156924 17.570701 -8.165376 -2.023010 0.001132 0.002881 21.454554 13.037317 -10.782295 13.267520 3.890688 -7.727801 -39.398570 -15.143719 -3.514411 1.497324 -0.001122 -0.002900 21.454560 -0.183006 0.352358 -11.112902 -0.495482 0.650078 -12.126918 -0.354107 0.691601 -11.899549 -6.623636 13.393916 11.423739 11.123748 14.358955 19.972852 17.754694 -2.146413 0.780221 40.154428 -11.338278 -10.746217 -129.265810 -87.868236 126.440945 -0.680820 4.976596 -20.581203 -9.544187 9.383447 -0.178285 -30.999675 7.741496 31.045156 146.530461 87.339628 144.066011 18.812391 4.509034 -32.068078
